# xmcd
#
# Track frame offsets:
#	150
#	19062
#	44739
#	65371
#	83123
#	105010
#	138902
#	163874
#	184458
#	202397
#	223772
#	247027
#	273614
#	293180
#
# Disc length: 4196 seconds
# Revision: 0
# Processed by: cddbd v1.5.2PL0 Copyright (c) Steve Scherf et al.
# Submitted via: dBpowerAMP V12.0
#
DISCID=dd10620e
DTITLE=谷村新司 Shinji Tanimura - 谷村新司 Shinji Tanimura with PIANO_MY NOTE[Plex_16_44.1_LPS]
DYEAR=2012
DGENRE=JPop
TTITLE0=心の駅 Kokoro no Eki
TTITLE1=風の暦 Kaze no Koyomi
TTITLE2=いい日旅立ち Ii Hi Tabidachi
TTITLE3=三都物語 Santo Monogatari
TTITLE4=陽はまた昇る Hi wa Mata Noboru
TTITLE5=群青 Gunjo
TTITLE6=マイ・ボーイMy Boy
TTITLE7=22歳 22 Sai
TTITLE8=遠くで汽笛を聞きながら Toku de Kiteki wo Kikinagara
TTITLE9=さらば青春の時 Saraba Seishun no Toki
TTITLE10=昴 Subaru
TTITLE11=サライ Sarai
TTITLE12=忘れないで Wasure Naide
TTITLE13=風の子守歌 Kaze no Komoriuta
EXTD=
EXTT0=
EXTT1=
EXTT2=
EXTT3=
EXTT4=
EXTT5=
EXTT6=
EXTT7=
EXTT8=
EXTT9=
EXTT10=
EXTT11=
EXTT12=
EXTT13=
PLAYORDER=
